<?xml version="1.0" standalone="no"?>
<!DOCTYPE svg PUBLIC "-//W3C//DTD SVG 20010904//EN"
 "http://www.w3.org/TR/2001/REC-SVG-20010904/DTD/svg10.dtd">
<svg version="1.0" xmlns="http://www.w3.org/2000/svg"
 width="225.000000pt" height="225.000000pt" viewBox="0 0 225.000000 225.000000"
 preserveAspectRatio="xMidYMid meet">
<metadata>
Created by potrace 1.11, written by Peter Selinger 2001-2013
</metadata>
<g transform="translate(0.000000,225.000000) scale(0.100000,-0.100000)"
fill="#000000" stroke="none">
<path d="M742 1503 c-18 -4 -21 -9 -15 -31 6 -24 5 -26 -10 -13 -9 7 -14 17
-11 22 3 5 0 9 -6 9 -7 0 -10 -7 -6 -15 4 -12 -2 -14 -27 -12 -22 1 -31 -2
-29 -11 1 -8 -2 -11 -7 -7 -25 15 -180 -122 -165 -147 4 -7 3 -8 -4 -4 -12 7
-62 -84 -62 -112 0 -21 25 -8 28 15 2 16 9 20 25 16 21 -4 21 -4 -3 16 -27 21
-10 23 27 3 35 -19 51 -14 68 21 11 21 32 40 65 56 52 25 60 35 35 45 -8 3
-15 12 -15 20 0 22 47 0 53 -25 4 -13 14 -19 35 -19 17 0 32 -6 36 -15 3 -8
10 -15 15 -15 12 0 -1 49 -23 81 -18 29 -11 43 25 47 23 3 26 0 22 -22 -3 -16
-1 -26 6 -26 7 0 11 -12 9 -27 -2 -18 1 -27 9 -26 7 2 18 -7 25 -20 l12 -22 6
25 6 24 21 -21 c15 -15 23 -18 27 -10 3 9 5 9 5 0 1 -7 5 -13 11 -13 5 0 9 3
9 8 -3 18 2 32 12 32 6 0 9 -9 6 -20 -3 -13 0 -20 10 -20 8 0 11 -4 8 -10 -13
-22 16 -8 46 21 18 18 28 36 25 45 -3 9 -1 12 4 9 16 -10 12 -33 -11 -56 -11
-11 -22 -29 -24 -40 -3 -17 1 -19 29 -16 18 2 43 11 56 20 39 27 36 9 -6 -35
-21 -22 -34 -38 -28 -35 7 4 17 -6 24 -23 7 -16 16 -28 20 -25 5 3 10 0 12 -6
2 -7 19 2 41 21 31 27 40 30 52 20 18 -15 3 -40 -24 -40 -10 0 -28 -11 -41
-25 l-23 -25 36 0 c20 0 37 5 37 10 0 6 -6 10 -12 10 -18 1 34 29 53 30 12 0
15 -7 11 -25 -2 -14 -8 -25 -13 -25 -5 0 -9 -6 -9 -14 0 -9 8 -12 25 -8 19 3
25 0 25 -13 0 -15 3 -15 15 -5 13 11 18 11 28 0 9 -10 9 -12 -3 -8 -18 6 -40
-15 -40 -37 0 -10 -5 -13 -12 -9 -16 10 -97 6 -117 -6 -11 -6 17 -9 88 -10 91
0 102 -2 91 -15 -10 -12 -10 -15 3 -15 17 0 30 -27 20 -42 -3 -6 -1 -8 5 -4 5
3 13 0 15 -6 14 -34 5 174 -9 223 -52 177 -195 321 -373 373 -84 25 -129 21
-157 -11 -23 -27 -24 -27 -24 -6 0 12 6 24 13 26 15 6 -49 6 -81 0z m42 -22
c3 -4 -6 -6 -19 -3 -14 2 -25 6 -25 8 0 8 39 4 44 -5z m176 -1 c0 -5 7 -10 16
-10 9 0 14 -6 11 -12 -2 -7 -15 -12 -29 -10 -14 1 -31 -4 -38 -13 -20 -25 -50
-19 -50 10 0 14 -6 25 -12 26 -7 0 -4 4 7 9 28 12 95 12 95 0z m70 -17 c-1
-26 -14 -53 -27 -53 -8 0 -12 6 -9 13 3 6 9 20 12 30 6 17 24 24 24 10z m-200
-45 c0 -5 -4 -8 -10 -8 -5 0 -10 10 -10 23 0 18 2 19 10 7 5 -8 10 -18 10 -22z
m280 7 c34 -18 37 -24 13 -24 -10 0 -33 -2 -50 -4 -34 -4 -37 0 -27 27 8 20
27 20 64 1z m-172 -48 c2 -15 -1 -27 -7 -27 -6 0 -11 5 -11 11 0 5 -4 8 -9 5
-4 -3 -6 6 -3 20 6 32 26 26 30 -9z m36 -20 c-20 -12 -25 -6 -17 22 6 23 7 23
20 5 11 -15 11 -19 -3 -27z m-107 1 c-3 -8 -6 -5 -6 6 -1 11 2 17 5 13 3 -3 4
-12 1 -19z m-122 2 c3 -5 1 -10 -4 -10 -6 0 -11 5 -11 10 0 6 2 10 4 10 3 0 8
-4 11 -10z m515 -170 c0 -11 -2 -20 -4 -20 -2 0 -6 9 -9 20 -3 11 -1 20 4 20
5 0 9 -9 9 -20z m30 -10 c0 -5 -2 -10 -4 -10 -3 0 -8 5 -11 10 -3 6 -1 10 4
10 6 0 11 -4 11 -10z"/>
<path d="M1058 1413 c6 -2 18 -2 25 0 6 3 1 5 -13 5 -14 0 -19 -2 -12 -5z"/>
<path d="M808 1239 c-12 -6 -18 -22 -18 -43 0 -43 -35 -93 -85 -121 -38 -21
-40 -24 -37 -66 7 -97 85 -187 182 -208 27 -6 55 -9 62 -7 46 15 78 15 78 1 0
-8 -9 -15 -19 -15 -14 0 -18 -5 -14 -20 3 -11 0 -20 -6 -20 -6 0 -11 5 -11 10
0 6 -4 10 -9 10 -10 0 -2 -48 10 -56 5 -3 9 3 9 13 0 15 2 14 15 -5 l16 -22
36 33 c19 17 41 31 48 29 26 -5 26 19 0 44 -26 24 -52 33 -40 14 3 -5 2 -10
-3 -10 -23 0 -17 14 18 46 52 47 84 124 77 185 -15 129 -113 219 -237 218 -30
0 -63 -4 -72 -10z"/>
<path d="M480 1201 c0 -10 30 -24 37 -17 3 2 -5 9 -16 16 -12 6 -21 7 -21 1z"/>
<path d="M385 1140 c-3 -5 -8 -44 -11 -87 -12 -154 42 -292 160 -408 77 -76
159 -125 244 -145 50 -12 91 -6 44 7 -27 7 -29 23 -2 23 11 0 20 5 20 10 0 6
-7 10 -15 10 -8 0 -15 9 -15 20 0 22 -15 27 -23 8 -3 -7 -6 -3 -6 9 -1 12 6
28 14 37 8 8 13 21 10 28 -6 15 32 57 43 48 7 -6 22 72 16 79 -3 3 -11 -5 -20
-17 -8 -11 -21 -19 -28 -16 -8 3 -16 -2 -19 -13 -4 -14 -5 -13 -6 5 0 13 4 33
10 44 10 19 9 20 -15 16 -14 -3 -26 -1 -26 4 0 6 -7 8 -15 4 -9 -3 -15 0 -15
9 0 20 -23 19 -62 -1 l-32 -17 27 32 c36 43 34 51 -10 52 -35 0 -36 1 -15 11
28 14 30 42 2 33 -17 -5 -20 -2 -17 22 2 16 7 35 11 42 5 8 1 14 -14 18 -13 3
-19 11 -16 19 3 9 -8 23 -29 37 -19 12 -38 31 -41 42 -13 40 -25 46 -44 23
-13 -17 -21 -20 -31 -12 -27 20 -68 33 -74 24z m195 -120 c0 -5 -5 -10 -11
-10 -5 0 -7 5 -4 10 3 6 8 10 11 10 2 0 4 -4 4 -10z m-30 -80 c-14 -4 -36 -8
-50 -8 -23 -1 -23 0 -5 8 11 5 34 8 50 8 29 0 29 0 5 -8z m80 -160 c0 -5 -5
-10 -11 -10 -5 0 -7 5 -4 10 3 6 8 10 11 10 2 0 4 -4 4 -10z m120 -24 c0 -3
-4 -8 -10 -11 -5 -3 -10 -1 -10 4 0 6 5 11 10 11 6 0 10 -2 10 -4z m-50 -59
c0 -1 -14 -16 -32 -32 l-32 -30 19 33 c11 17 25 32 32 32 7 0 13 -1 13 -3z
m60 -28 c0 -6 -4 -7 -10 -4 -5 3 -10 11 -10 16 0 6 5 7 10 4 6 -3 10 -11 10
-16z m25 -139 c3 -5 1 -10 -4 -10 -6 0 -11 5 -11 10 0 6 2 10 4 10 3 0 8 -4
11 -10z"/>
<path d="M1167 1049 c-9 -6 -15 -14 -12 -19 8 -13 45 0 45 16 0 16 -8 17 -33
3z"/>
<path d="M1148 948 c11 -11 142 -39 151 -31 10 7 -11 16 -71 29 -82 17 -96 18
-80 2z"/>
<path d="M1140 881 c0 -5 5 -13 10 -16 6 -3 10 -2 10 4 0 5 -4 13 -10 16 -5 3
-10 2 -10 -4z"/>
<path d="M1070 821 c0 -12 4 -21 9 -21 4 0 26 -12 47 -26 l39 -26 -28 30 c-16
17 -29 34 -28 39 1 4 -2 8 -6 8 -5 0 -14 4 -20 8 -9 6 -13 2 -13 -12z"/>
<path d="M1198 833 c7 -3 16 -2 19 1 4 3 -2 6 -13 5 -11 0 -14 -3 -6 -6z"/>
<path d="M1260 814 c0 -10 33 -33 48 -34 8 0 12 5 10 11 -2 6 -8 11 -13 11 -6
0 -18 4 -27 9 -10 5 -18 7 -18 3z"/>
<path d="M1326 774 c-10 -25 1 -29 14 -5 6 12 7 21 1 21 -5 0 -12 -7 -15 -16z"/>
<path d="M2023 771 c-4 -17 -8 -20 -15 -9 -7 10 -8 8 -4 -5 4 -12 -3 -27 -21
-43 -21 -20 -29 -22 -41 -12 -13 11 -14 10 -4 -8 6 -11 8 -31 5 -44 -6 -22 -7
-23 -14 -4 -5 13 -8 14 -8 4 -1 -8 -11 -20 -23 -25 -13 -6 -24 -20 -26 -32 -2
-12 -11 -27 -20 -35 -13 -11 -15 -11 -7 2 4 8 -11 -3 -34 -25 -26 -25 -39 -45
-36 -55 5 -11 3 -12 -6 -3 -9 9 -23 3 -59 -23 -26 -19 -62 -39 -79 -45 -17 -6
-31 -15 -31 -20 0 -19 -56 -58 -109 -74 -31 -10 -76 -24 -101 -32 -25 -8 -79
-17 -120 -21 -75 -7 -75 -7 -25 -12 47 -5 44 -6 -54 -19 -59 -8 -130 -11 -166
-7 -35 3 -65 3 -67 -1 -3 -5 -3 -3 -2 4 3 12 -18 24 -39 22 -7 0 -3 -5 8 -10
15 -7 13 -8 -10 -3 -16 4 -39 6 -50 6 -11 -1 -41 10 -68 24 -26 14 -55 24 -65
23 -9 -2 -27 1 -40 5 -19 6 -21 10 -11 22 10 12 6 13 -21 7 -21 -4 -31 -2 -27
4 8 12 -50 46 -68 39 -8 -3 -17 0 -21 6 -5 7 -2 8 6 3 8 -5 11 -4 7 3 -4 5
-17 8 -29 4 -14 -3 -19 -2 -14 6 4 7 2 13 -3 13 -21 3 -26 4 -41 14 -46 28 20
-29 83 -73 96 -66 149 -92 297 -143 l125 -44 148 0 c90 0 151 4 155 10 4 6 40
18 79 28 84 19 235 88 320 143 74 50 173 143 230 216 51 67 138 226 129 236
-4 3 -9 -4 -13 -17z m-393 -391 c-14 -10 -27 -17 -29 -15 -8 8 22 35 38 35 12
0 10 -5 -9 -20z"/>
<path d="M808 763 c7 -3 16 -2 19 1 4 3 -2 6 -13 5 -11 0 -14 -3 -6 -6z"/>
<path d="M892 710 c0 -14 2 -19 5 -12 2 6 2 18 0 25 -3 6 -5 1 -5 -13z"/>
<path d="M329 552 c6 -12 16 -24 22 -28 8 -4 8 -1 0 14 -6 12 -16 24 -22 28
-8 4 -8 1 0 -14z"/>
<path d="M380 497 c0 -2 6 -10 14 -16 11 -9 16 -9 22 1 4 7 4 10 -1 6 -4 -4
-14 -3 -22 3 -7 6 -13 9 -13 6z"/>
<path d="M923 493 c9 -2 23 -2 30 0 6 3 -1 5 -18 5 -16 0 -22 -2 -12 -5z"/>
<path d="M427 473 c-10 -22 0 -38 25 -39 15 -1 25 3 22 8 -3 5 -9 7 -12 4 -8
-9 -33 15 -26 25 3 5 3 9 0 9 -3 0 -7 -3 -9 -7z"/>
<path d="M690 306 c0 -2 7 -7 16 -10 8 -3 12 -2 9 4 -6 10 -25 14 -25 6z"/>
</g>
</svg>
